<svg xmlns="http://www.w3.org/2000/svg" width="691" height="1093" fill="none" viewBox="0 0 691 1093"><ellipse fill="#6CCDA9" rx="70.781" ry="70.768" transform="matrix(-0.994544 -0.134576 0.11142 -0.990157 280.137 480.865)"/><ellipse fill="url(#paint0_linear)" rx="70.781" ry="70.768" transform="matrix(-0.994544 -0.134576 0.11142 -0.990157 280.137 480.865)"/><ellipse fill="#6CCDA9" rx="34.409" ry="34.403" transform="matrix(-0.994544 -0.134576 0.11142 -0.990157 96.6019 452.019)"/><ellipse fill="url(#paint1_linear)" rx="34.409" ry="34.403" transform="matrix(-0.994544 -0.134576 0.11142 -0.990157 96.6019 452.019)"/><ellipse fill="#6CCDA9" rx="18.652" ry="18.649" transform="matrix(-0.994544 -0.134576 0.11142 -0.990157 137.182 335.345)"/><ellipse fill="url(#paint2_linear)" rx="18.652" ry="18.649" transform="matrix(-0.994544 -0.134576 0.11142 -0.990157 137.182 335.345)"/><ellipse fill="#6CCDA9" rx="218.378" ry="215.039" transform="matrix(0.880318 0.480767 -0.46532 0.881611 659.467 608.642)"/><defs><linearGradient id="paint0_linear" x1="70.781" x2="70.781" y1="0" y2="141.536" gradientUnits="userSpaceOnUse"><stop stop-color="#6CCDA9"/><stop offset="1" stop-color="#fff" stop-opacity="0"/></linearGradient><linearGradient id="paint1_linear" x1="34.409" x2="34.409" y1="0" y2="68.806" gradientUnits="userSpaceOnUse"><stop stop-color="#6CCDA9"/><stop offset="1" stop-color="#fff" stop-opacity="0"/></linearGradient><linearGradient id="paint2_linear" x1="18.652" x2="18.652" y1="0" y2="37.298" gradientUnits="userSpaceOnUse"><stop stop-color="#6CCDA9"/><stop offset="1" stop-color="#fff" stop-opacity="0"/></linearGradient></defs></svg>