<svg xmlns="http://www.w3.org/2000/svg" width="140" height="106" fill="none" viewBox="0 0 140 106"><ellipse cx="126.273" cy="91.499" fill="#FF612F" rx="13.608" ry="13.5"/><ellipse cx="88.976" cy="91.499" fill="#613737" rx="13.608" ry="13.5"/><path fill="#000" d="M64.4162 91.5015C64.4162 98.9573 58.3235 105.001 50.8077 105.001C43.2919 105.001 37.1992 98.9573 37.1992 91.5015C37.1992 84.0456 43.2919 78.0015 50.8077 78.0015C58.3235 78.0015 64.4162 84.0456 64.4162 91.5015Z"/><ellipse cx="14.382" cy="91.499" fill="#2DBBDA" rx="13.608" ry="13.5"/><ellipse cx="126.273" cy="52.499" fill="#CBB809" rx="13.608" ry="13.5"/><ellipse cx="88.976" cy="52.499" fill="#865684" rx="13.608" ry="13.5"/><ellipse cx="51.679" cy="52.499" fill="#554F64" rx="13.608" ry="13.5"/><ellipse cx="14.382" cy="52.499" fill="#538764" rx="13.608" ry="13.5"/><ellipse cx="126.273" cy="13.499" fill="#B0CD5F" rx="13.608" ry="13.5"/><ellipse cx="88.976" cy="13.499" fill="#273DB0" rx="13.608" ry="13.5"/><ellipse cx="51.679" cy="13.499" fill="#9D3535" rx="13.608" ry="13.5"/><circle cx="14.273" cy="13.499" r="13.5" fill="#D0C4C4"/></svg>